# Blender v2.81 (sub 14) OBJ File: ''
# www.blender.org
v 0.000000 -1.000000 -1.000000
v 0.098017 -1.000000 -0.995185
v 0.098017 1.000000 -0.995185
v 0.000000 1.000000 -1.000000
v 0.195090 -1.000000 -0.980785
v 0.195090 1.000000 -0.980785
v 0.290285 -1.000000 -0.956940
v 0.290285 1.000000 -0.956940
v 0.382683 -1.000000 -0.923880
v 0.382683 1.000000 -0.923880
v 0.471397 -1.000000 -0.881921
v 0.471397 1.000000 -0.881921
v 0.555570 -1.000000 -0.831470
v 0.555570 1.000000 -0.831470
v 0.634393 -1.000000 -0.773010
v 0.634393 1.000000 -0.773010
v 0.707107 -1.000000 -0.707107
v 0.707107 1.000000 -0.707107
v 0.773010 -1.000000 -0.634393
v 0.773010 1.000000 -0.634393
v 0.831470 -1.000000 -0.555570
v 0.831470 1.000000 -0.555570
v 0.881921 -1.000000 -0.471397
v 0.881921 1.000000 -0.471397
v 0.923880 -1.000000 -0.382683
v 0.923880 1.000000 -0.382683
v 0.956940 -1.000000 -0.290285
v 0.956940 1.000000 -0.290285
v 0.980785 -1.000000 -0.195090
v 0.980785 1.000000 -0.195090
v 0.995185 -1.000000 -0.098017
v 0.995185 1.000000 -0.098017
v 1.000000 -1.000000 0.000000
v 1.000000 1.000000 0.000000
v 0.995185 -1.000000 0.098017
v 0.995185 1.000000 0.098017
v 0.980785 -1.000000 0.195091
v 0.980785 1.000000 0.195091
v 0.956940 -1.000000 0.290285
v 0.956940 1.000000 0.290285
v 0.923879 -1.000000 0.382684
v 0.923879 1.000000 0.382684
v 0.881921 -1.000000 0.471397
v 0.881921 1.000000 0.471397
v 0.831469 -1.000000 0.555571
v 0.831469 1.000000 0.555571
v 0.773010 -1.000000 0.634394
v 0.773010 1.000000 0.634394
v 0.707106 -1.000000 0.707107
v 0.707106 1.000000 0.707107
v 0.634393 -1.000000 0.773011
v 0.634393 1.000000 0.773011
v 0.555570 -1.000000 0.831470
v 0.555570 1.000000 0.831470
v 0.471396 -1.000000 0.881922
v 0.471396 1.000000 0.881922
v 0.382683 -1.000000 0.923880
v 0.382683 1.000000 0.923880
v 0.290284 -1.000000 0.956941
v 0.290284 1.000000 0.956941
v 0.195090 -1.000000 0.980785
v 0.195090 1.000000 0.980785
v 0.098016 -1.000000 0.995185
v 0.098016 1.000000 0.995185
v -0.000001 -1.000000 1.000000
v -0.000001 1.000000 1.000000
v -0.098018 -1.000000 0.995185
v -0.098018 1.000000 0.995185
v -0.195091 -1.000000 0.980785
v -0.195091 1.000000 0.980785
v -0.290286 -1.000000 0.956940
v -0.290286 1.000000 0.956940
v -0.382684 -1.000000 0.923879
v -0.382684 1.000000 0.923879
v -0.471398 -1.000000 0.881921
v -0.471398 1.000000 0.881921
v -0.555571 -1.000000 0.831469
v -0.555571 1.000000 0.831469
v -0.634394 -1.000000 0.773010
v -0.634394 1.000000 0.773010
v -0.707108 -1.000000 0.707106
v -0.707108 1.000000 0.707106
v -0.773011 -1.000000 0.634393
v -0.773011 1.000000 0.634393
v -0.831470 -1.000000 0.555570
v -0.831470 1.000000 0.555570
v -0.881922 -1.000000 0.471396
v -0.881922 1.000000 0.471396
v -0.923880 -1.000000 0.382683
v -0.923880 1.000000 0.382683
v -0.956940 -1.000000 0.290285
v -0.956940 1.000000 0.290285
v -0.980785 -1.000000 0.195090
v -0.980785 1.000000 0.195090
v -0.995185 -1.000000 0.098017
v -0.995185 1.000000 0.098017
v -1.000000 -1.000000 0.000000
v -1.000000 1.000000 0.000000
v -0.995185 -1.000000 -0.098016
v -0.995185 1.000000 -0.098016
v -0.980785 -1.000000 -0.195089
v -0.980785 1.000000 -0.195089
v -0.956941 -1.000000 -0.290284
v -0.956941 1.000000 -0.290284
v -0.923880 -1.000000 -0.382682
v -0.923880 1.000000 -0.382682
v -0.881922 -1.000000 -0.471395
v -0.881922 1.000000 -0.471395
v -0.831471 -1.000000 -0.555569
v -0.831471 1.000000 -0.555569
v -0.773012 -1.000000 -0.634392
v -0.773012 1.000000 -0.634392
v -0.707108 -1.000000 -0.707105
v -0.707108 1.000000 -0.707105
v -0.634395 -1.000000 -0.773009
v -0.634395 1.000000 -0.773009
v -0.555572 -1.000000 -0.831468
v -0.555572 1.000000 -0.831468
v -0.471399 -1.000000 -0.881920
v -0.471399 1.000000 -0.881920
v -0.382686 -1.000000 -0.923878
v -0.382686 1.000000 -0.923878
v -0.290288 -1.000000 -0.956939
v -0.290288 1.000000 -0.956939
v -0.195093 -1.000000 -0.980785
v -0.195093 1.000000 -0.980785
v -0.098021 -1.000000 -0.995184
v -0.098021 1.000000 -0.995184
vt 0.996158 1.000000
vt 0.980533 1.000000
vt 0.980534 0.000000
vt 0.996159 0.000001
vt 0.027408 1.000000
vt 0.011783 1.000000
vt 0.011784 0.000001
vt 0.027409 0.000001
vt 0.964909 1.000000
vt 0.964909 0.000000
vt 0.699284 0.999999
vt 0.683659 0.999999
vt 0.683659 0.000000
vt 0.699284 0.000000
vt 0.043033 1.000000
vt 0.043034 0.000001
vt 0.714909 0.999999
vt 0.714909 0.000000
vt 0.949284 1.000000
vt 0.949284 0.000000
vt 0.730534 1.000000
vt 0.730534 0.000000
vt 0.746159 1.000000
vt 0.746159 0.000000
vt 0.933659 1.000000
vt 0.933659 0.000000
vt 0.089909 1.000000
vt 0.074284 1.000000
vt 0.074284 0.000001
vt 0.089909 0.000001
vt 0.761784 1.000000
vt 0.761784 0.000000
vt 0.105534 1.000000
vt 0.105534 0.000001
vt 0.777409 1.000000
vt 0.777409 0.000000
vt 0.121159 1.000000
vt 0.121159 0.000001
vt 0.136784 1.000000
vt 0.136784 0.000001
vt 0.793034 1.000000
vt 0.793034 0.000000
vt 0.808659 1.000000
vt 0.808659 0.000000
vt 0.824284 1.000000
vt 0.824284 0.000000
vt 1.011783 1.000000
vt 1.011784 0.000001
vt 0.839909 1.000000
vt 0.839909 0.000000
vt 0.918034 1.000000
vt 0.918034 0.000000
vt 0.152409 1.000000
vt 0.152409 0.000001
vt 0.855534 1.000000
vt 0.855534 0.000000
vt 0.871159 1.000000
vt 0.871159 0.000000
vt 0.168034 1.000000
vt 0.168034 0.000001
vt 0.886784 1.000000
vt 0.886784 0.000000
vt 0.902409 1.000000
vt 0.902409 0.000000
vt 0.668034 0.999999
vt 0.668034 0.000000
vt 0.230534 1.000000
vt 0.214909 1.000000
vt 0.214909 0.000001
vt 0.230534 0.000001
vt 0.277409 1.000000
vt 0.261784 1.000000
vt 0.261783 0.000000
vt 0.277409 0.000000
vt 0.386784 1.000000
vt 0.371159 1.000000
vt 0.371158 0.000000
vt 0.386784 0.000000
vt 0.402409 1.000000
vt 0.402409 0.000000
vt 0.433659 1.000000
vt 0.418034 1.000000
vt 0.418034 0.000000
vt 0.433659 0.000000
vt 0.464909 1.000000
vt 0.449284 1.000000
vt 0.449284 0.000000
vt 0.464909 0.000000
vt 0.511784 0.999999
vt 0.496159 1.000000
vt 0.496159 0.000000
vt 0.511784 0.000000
vt 0.058659 1.000000
vt 0.058659 0.000001
vt 0.574284 0.999999
vt 0.558659 0.999999
vt 0.558659 0.000000
vt 0.574284 -0.000001
vt 0.621159 0.999999
vt 0.605534 0.999999
vt 0.605534 -0.000001
vt 0.621159 -0.000001
vt 0.324284 1.000000
vt 0.308659 1.000000
vt 0.308658 0.000000
vt 0.324284 0.000000
vt 0.636784 0.999999
vt 0.636784 -0.000001
vt 0.589909 0.999999
vt 0.589909 -0.000001
vt 0.543034 0.999999
vt 0.527409 0.999999
vt 0.527409 0.000000
vt 0.543034 0.000000
vt 0.480534 1.000000
vt 0.480534 0.000000
vt 0.293034 1.000000
vt 0.293033 0.000000
vt 0.183659 1.000000
vt 0.183659 0.000001
vt 0.199284 1.000000
vt 0.199284 0.000001
vt 0.246159 1.000000
vt 0.246158 0.000000
vt 0.339909 1.000000
vt 0.339908 0.000000
vt 0.355534 1.000000
vt 0.355533 0.000000
vt 0.652409 -0.000001
vt 0.652409 0.999999
vt 1.027408 1.000000
vt 1.043033 1.000000
vt 1.058659 1.000000
vt 1.074284 1.000000
vt 1.089909 1.000000
vt 1.105534 1.000000
vn -0.8315 0.0000 0.5556
vn -0.8819 0.0000 0.4714
vn -0.7071 0.0000 0.7071
vn -0.7730 0.0000 0.6344
vn -0.9239 0.0000 0.3827
vn -0.2903 0.0000 -0.9569
vn -0.1951 0.0000 -0.9808
vn -0.6344 0.0000 0.7730
vn -0.3827 0.0000 -0.9239
vn -0.9569 0.0000 0.2903
vn -0.4714 0.0000 -0.8819
vn -0.5556 0.0000 -0.8315
vn -0.9808 0.0000 0.1951
vn -0.3827 0.0000 0.9239
vn -0.4714 0.0000 0.8819
vn -0.6344 0.0000 -0.7730
vn -0.2903 0.0000 0.9569
vn -0.7071 0.0000 -0.7071
vn -0.1951 0.0000 0.9808
vn -0.0980 0.0000 0.9952
vn -0.7730 0.0000 -0.6344
vn -0.8315 0.0000 -0.5556
vn -0.8819 0.0000 -0.4714
vn -0.9239 0.0000 -0.3827
vn -0.9952 0.0000 0.0980
vn 0.0000 0.0000 1.0000
vn -0.9569 0.0000 -0.2903
vn -0.9808 0.0000 -0.1951
vn 0.0980 0.0000 0.9952
vn -0.9952 0.0000 -0.0980
vn -1.0000 0.0000 -0.0000
vn -0.0980 0.0000 -0.9952
vn 0.4714 0.0000 0.8819
vn 0.3827 0.0000 0.9239
vn 0.7071 0.0000 0.7071
vn 0.6344 0.0000 0.7730
vn 0.9952 0.0000 0.0980
vn 0.9808 0.0000 0.1951
vn 1.0000 0.0000 0.0000
vn 0.9808 0.0000 -0.1951
vn 0.9952 0.0000 -0.0980
vn 0.9239 0.0000 -0.3827
vn 0.9569 0.0000 -0.2903
vn 0.7730 0.0000 -0.6344
vn 0.8315 0.0000 -0.5556
vn -0.5556 0.0000 0.8315
vn 0.4714 0.0000 -0.8819
vn 0.5556 0.0000 -0.8315
vn 0.1951 0.0000 -0.9808
vn 0.2903 0.0000 -0.9569
vn 0.8819 0.0000 0.4714
vn 0.8315 0.0000 0.5556
vn 0.0980 0.0000 -0.9952
vn 0.3827 0.0000 -0.9239
vn 0.6344 0.0000 -0.7730
vn 0.7071 0.0000 -0.7071
vn 0.8819 0.0000 -0.4714
vn 0.7730 0.0000 0.6344
vn 0.1951 0.0000 0.9808
vn 0.2903 0.0000 0.9569
vn 0.5556 0.0000 0.8315
vn 0.9239 0.0000 0.3827
vn 0.9569 0.0000 0.2903
vn 0.0000 -1.0000 0.0000
vn 0.0000 1.0000 0.0000
vn -0.0000 0.0000 -1.0000
s 1
f 86/1/1 88/2/2 87/3/2 85/4/1
f 82/5/3 84/6/4 83/7/4 81/8/3
f 88/2/2 90/9/5 89/10/5 87/3/2
f 124/11/6 126/12/7 125/13/7 123/14/6
f 80/15/8 82/5/3 81/8/3 79/16/8
f 122/17/9 124/11/6 123/14/6 121/18/9
f 90/9/5 92/19/10 91/20/10 89/10/5
f 120/21/11 122/17/9 121/18/9 119/22/11
f 118/23/12 120/21/11 119/22/11 117/24/12
f 92/19/10 94/25/13 93/26/13 91/20/10
f 74/27/14 76/28/15 75/29/15 73/30/14
f 116/31/16 118/23/12 117/24/12 115/32/16
f 72/33/17 74/27/14 73/30/14 71/34/17
f 114/35/18 116/31/16 115/32/16 113/36/18
f 70/37/19 72/33/17 71/34/17 69/38/19
f 68/39/20 70/37/19 69/38/19 67/40/20
f 112/41/21 114/35/18 113/36/18 111/42/21
f 110/43/22 112/41/21 111/42/21 109/44/22
f 108/45/23 110/43/22 109/44/22 107/46/23
f 84/47/4 86/1/1 85/4/1 83/48/4
f 106/49/24 108/45/23 107/46/23 105/50/24
f 94/25/13 96/51/25 95/52/25 93/26/13
f 66/53/26 68/39/20 67/40/20 65/54/26
f 104/55/27 106/49/24 105/50/24 103/56/27
f 102/57/28 104/55/27 103/56/27 101/58/28
f 64/59/29 66/53/26 65/54/26 63/60/29
f 100/61/30 102/57/28 101/58/28 99/62/30
f 98/63/31 100/61/30 99/62/30 97/64/31
f 96/51/25 98/63/31 97/64/31 95/52/25
f 126/12/7 128/65/32 127/66/32 125/13/7
f 56/67/33 58/68/34 57/69/34 55/70/33
f 50/71/35 52/72/36 51/73/36 49/74/35
f 36/75/37 38/76/38 37/77/38 35/78/37
f 34/79/39 36/75/37 35/78/37 33/80/39
f 30/81/40 32/82/41 31/83/41 29/84/40
f 26/85/42 28/86/43 27/87/43 25/88/42
f 20/89/44 22/90/45 21/91/45 19/92/44
f 76/28/15 78/93/46 77/94/46 75/29/15
f 12/95/47 14/96/48 13/97/48 11/98/47
f 6/99/49 8/100/50 7/101/50 5/102/49
f 44/103/51 46/104/52 45/105/52 43/106/51
f 3/107/53 6/99/49 5/102/49 2/108/53
f 8/100/50 10/109/54 9/110/54 7/101/50
f 16/111/55 18/112/56 17/113/56 15/114/55
f 24/115/57 26/85/42 25/88/42 23/116/57
f 48/117/58 50/71/35 49/74/35 47/118/58
f 62/119/59 64/59/29 63/60/29 61/120/59
f 60/121/60 62/119/59 61/120/59 59/122/60
f 58/68/34 60/121/60 59/122/60 57/69/34
f 54/123/61 56/67/33 55/70/33 53/124/61
f 52/72/36 54/123/61 53/124/61 51/73/36
f 46/104/52 48/117/58 47/118/58 45/105/52
f 42/125/62 44/103/51 43/106/51 41/126/62
f 40/127/63 42/125/62 41/126/62 39/128/63
f 38/76/38 40/127/63 39/128/63 37/77/38
f 32/82/41 34/79/39 33/80/39 31/83/41
f 28/86/43 30/81/40 29/84/40 27/87/43
f 22/90/45 24/115/57 23/116/57 21/91/45
f 78/93/46 80/15/8 79/16/8 77/94/46
f 14/96/48 16/111/55 15/114/55 13/97/48
f 2/108/64 5/102/64 7/101/64 9/110/64 11/98/64 13/97/64 15/114/64 17/113/64 19/92/64 21/91/64 23/116/64 25/88/64 27/87/64 29/84/64 31/83/64 33/80/64 35/78/64 37/77/64 39/128/64 41/126/64 43/106/64 45/105/64 47/118/64 49/74/64 51/73/64 53/124/64 55/70/64 57/69/64 59/122/64 61/120/64 63/60/64 65/54/64 67/40/64 69/38/64 71/34/64 73/30/64 75/29/64 77/94/64 79/16/64 81/8/64 83/48/64 85/4/64 87/3/64 89/10/64 91/20/64 93/26/64 95/52/64 97/64/64 99/62/64 101/58/64 103/56/64 105/50/64 107/46/64 109/44/64 111/42/64 113/36/64 115/32/64 117/24/64 119/22/64 121/18/64 123/14/64 125/13/64 127/66/64 1/129/64
f 4/130/65 128/65/65 126/12/65 124/11/65 122/17/65 120/21/65 118/23/65 116/31/65 114/35/65 112/41/65 110/43/65 108/45/65 106/49/65 104/55/65 102/57/65 100/61/65 98/63/65 96/51/65 94/25/65 92/19/65 90/9/65 88/2/65 86/1/65 84/47/65 82/131/65 80/132/65 78/133/65 76/134/65 74/135/65 72/136/65 70/37/65 68/39/65 66/53/65 64/59/65 62/119/65 60/121/65 58/68/65 56/67/65 54/123/65 52/72/65 50/71/65 48/117/65 46/104/65 44/103/65 42/125/65 40/127/65 38/76/65 36/75/65 34/79/65 32/82/65 30/81/65 28/86/65 26/85/65 24/115/65 22/90/65 20/89/65 18/112/65 16/111/65 14/96/65 12/95/65 10/109/65 8/100/65 6/99/65 3/107/65
f 10/109/54 12/95/47 11/98/47 9/110/54
f 18/112/56 20/89/44 19/92/44 17/113/56
f 4/130/66 3/107/53 2/108/53 1/129/66
f 128/65/32 4/130/66 1/129/66 127/66/32
