{
    "asset" : {
        "generator" : "Khronos glTF Blender I/O v1.0.5",
        "version" : "2.0"
    },
    "scene" : 0,
    "scenes" : [
        {
            "name" : "Scene",
            "nodes" : [
                0,
                1,
                2,
                3,
                4,
                5
            ]
        }
    ],
    "nodes" : [
        {
            "mesh" : 0,
            "name" : "Cube",
            "rotation" : [
                0.9397857785224915,
                0,
                -0.34176406264305115,
                -1.4503123679787677e-07
            ],
            "translation" : [
                -1.0003024339675903,
                0.5978671312332153,
                0.7831290364265442
            ]
        },
        {
            "mesh" : 1,
            "name" : "Clearcoat",
            "rotation" : [
                1,
                0,
                0,
                -1.3435885648505064e-07
            ],
            "translation" : [
                -0.2846468985080719,
                0.33497005701065063,
                0.08135119080543518
            ]
        },
        {
            "name" : "MetalSphere",
            "rotation" : [
                1,
                0,
                0,
                -1.3435885648505064e-07
            ],
            "translation" : [
                0.007981967180967331,
                0.22863471508026123,
                0.8916647434234619
            ]
        },
        {
            "mesh" : 2,
            "name" : "Room",
            "rotation" : [
                1,
                0,
                0,
                -1.3435885648505064e-07
            ]
        },
        {
            "mesh" : 3,
            "name" : "Sphere",
            "translation" : [
                0.2915034890174866,
                0.22863471508026123,
                0.9213096499443054
            ]
        },
        {
            "mesh" : 4,
            "name" : "Suzanne",
            "rotation" : [
                0.834141194820404,
                0.23492449522018433,
                -0.4418063461780548,
                0.23200470209121704
            ],
            "translation" : [
                0.18311798572540283,
                0.17104077339172363,
                -0.6631598472595215
            ]
        }
    ],
    "materials" : [
        {
            "name" : "Box",
            "pbrMetallicRoughness" : {
                "baseColorFactor" : [
                    0.548852264881134,
                    0.26805469393730164,
                    0.07707208395004272,
                    1
                ],
                "metallicFactor" : 0,
                "roughnessFactor" : 0.800000011920929
            }
        },
        {
            "name" : "Sphere",
            "pbrMetallicRoughness" : {
                "baseColorFactor" : [
                    0.5382252335548401,
                    0.247404545545578,
                    0.02199922502040863,
                    1
                ],
                "metallicFactor" : 1,
                "roughnessFactor" : 0.9256198406219482
            }
        },
        {
            "name" : "White",
            "pbrMetallicRoughness" : {
                "baseColorFactor" : [
                    1,
                    1,
                    1,
                    1
                ],
                "metallicFactor" : 0,
                "roughnessFactor" : 0.5
            }
        },
        {
            "name" : "Red",
            "pbrMetallicRoughness" : {
                "baseColorFactor" : [
                    1,
                    0.03310476616024971,
                    0.03310476616024971,
                    1
                ],
                "metallicFactor" : 0,
                "roughnessFactor" : 0.5
            }
        },
        {
            "name" : "Blue",
            "pbrMetallicRoughness" : {
                "baseColorFactor" : [
                    0.03310511261224747,
                    0.03310476616024971,
                    1,
                    1
                ],
                "metallicFactor" : 0,
                "roughnessFactor" : 0.5
            }
        },
        {
            "emissiveFactor" : [
                15.0,
                15.0,
                15.0
            ],
            "name" : "Light",
            "pbrMetallicRoughness" : {}
        },
        {
            "name" : "ShinySphere",
            "pbrMetallicRoughness" : {
                "baseColorFactor" : [
                    0.6382718682289124,
                    0.6382718682289124,
                    0.6382718682289124,
                    1
                ],
                "metallicFactor" : 1,
                "roughnessFactor" : 0
            }
        },
        {
            "name" : "Suzanne",
            "pbrMetallicRoughness" : {
                "baseColorFactor" : [
                    0.0876377522945404,
                    0.467201828956604,
                    0.06406788527965546,
                    1
                ],
                "metallicFactor" : 0,
                "roughnessFactor" : 0.671074390411377
            }
        }
    ],
    "meshes" : [
        {
            "name" : "Cube",
            "primitives" : [
                {
                    "attributes" : {
                        "POSITION" : 0,
                        "NORMAL" : 1,
                        "TANGENT" : 2,
                        "TEXCOORD_0" : 3
                    },
                    "indices" : 4,
                    "material" : 0
                }
            ]
        },
        {
            "name" : "Clearcoat",
            "primitives" : [
                {
                    "attributes" : {
                        "POSITION" : 5,
                        "NORMAL" : 6,
                        "TANGENT" : 7,
                        "TEXCOORD_0" : 8
                    },
                    "indices" : 9,
                    "material" : 1
                }
            ]
        },
        {
            "name" : "Room",
            "primitives" : [
                {
                    "attributes" : {
                        "POSITION" : 10,
                        "NORMAL" : 11,
                        "TANGENT" : 12,
                        "TEXCOORD_0" : 13
                    },
                    "indices" : 14,
                    "material" : 2
                },
                {
                    "attributes" : {
                        "POSITION" : 15,
                        "NORMAL" : 16,
                        "TANGENT" : 17,
                        "TEXCOORD_0" : 18
                    },
                    "indices" : 19,
                    "material" : 3
                },
                {
                    "attributes" : {
                        "POSITION" : 20,
                        "NORMAL" : 21,
                        "TANGENT" : 22,
                        "TEXCOORD_0" : 23
                    },
                    "indices" : 19,
                    "material" : 4
                },
                {
                    "attributes" : {
                        "POSITION" : 24,
                        "NORMAL" : 25,
                        "TANGENT" : 26,
                        "TEXCOORD_0" : 27
                    },
                    "indices" : 19,
                    "material" : 5
                }
            ]
        },
        {
            "name" : "Sphere",
            "primitives" : [
                {
                    "attributes" : {
                        "POSITION" : 28,
                        "NORMAL" : 29,
                        "TANGENT" : 30,
                        "TEXCOORD_0" : 31
                    },
                    "indices" : 32,
                    "material" : 6
                }
            ]
        },
        {
            "name" : "Suzanne",
            "primitives" : [
                {
                    "attributes" : {
                        "POSITION" : 33,
                        "NORMAL" : 34,
                        "TANGENT" : 35,
                        "TEXCOORD_0" : 36
                    },
                    "indices" : 37,
                    "material" : 7
                }
            ]
        }
    ],
    "accessors" : [
        {
            "bufferView" : 0,
            "componentType" : 5126,
            "count" : 24,
            "max" : [
                0.27138933539390564,
                0.5990818738937378,
                0.27138933539390564
            ],
            "min" : [
                -0.27138933539390564,
                -0.5990819931030273,
                -0.27138933539390564
            ],
            "type" : "VEC3"
        },
        {
            "bufferView" : 1,
            "componentType" : 5126,
            "count" : 24,
            "type" : "VEC3"
        },
        {
            "bufferView" : 2,
            "componentType" : 5126,
            "count" : 24,
            "type" : "VEC4"
        },
        {
            "bufferView" : 3,
            "componentType" : 5126,
            "count" : 24,
            "type" : "VEC2"
        },
        {
            "bufferView" : 4,
            "componentType" : 5123,
            "count" : 36,
            "type" : "SCALAR"
        },
        {
            "bufferView" : 5,
            "componentType" : 5126,
            "count" : 6303,
            "max" : [
                0.3349995017051697,
                0.33500000834465027,
                0.33500000834465027
            ],
            "min" : [
                -0.334999680519104,
                -0.33500000834465027,
                -0.3349990248680115
            ],
            "type" : "VEC3"
        },
        {
            "bufferView" : 6,
            "componentType" : 5126,
            "count" : 6303,
            "type" : "VEC3"
        },
        {
            "bufferView" : 7,
            "componentType" : 5126,
            "count" : 6303,
            "type" : "VEC4"
        },
        {
            "bufferView" : 8,
            "componentType" : 5126,
            "count" : 6303,
            "type" : "VEC2"
        },
        {
            "bufferView" : 9,
            "componentType" : 5123,
            "count" : 36288,
            "type" : "SCALAR"
        },
        {
            "bufferView" : 10,
            "componentType" : 5126,
            "count" : 26,
            "max" : [
                3.687523603439331,
                0,
                1.2021650075912476
            ],
            "min" : [
                -1.4287422895431519,
                -2,
                -1.2021650075912476
            ],
            "type" : "VEC3"
        },
        {
            "bufferView" : 11,
            "componentType" : 5126,
            "count" : 26,
            "type" : "VEC3"
        },
        {
            "bufferView" : 12,
            "componentType" : 5126,
            "count" : 26,
            "type" : "VEC4"
        },
        {
            "bufferView" : 13,
            "componentType" : 5126,
            "count" : 26,
            "type" : "VEC2"
        },
        {
            "bufferView" : 14,
            "componentType" : 5123,
            "count" : 42,
            "type" : "SCALAR"
        },
        {
            "bufferView" : 15,
            "componentType" : 5126,
            "count" : 4,
            "max" : [
                3.687523603439331,
                0,
                1.2021650075912476
            ],
            "min" : [
                -1.4287422895431519,
                -2,
                1.2021650075912476
            ],
            "type" : "VEC3"
        },
        {
            "bufferView" : 16,
            "componentType" : 5126,
            "count" : 4,
            "type" : "VEC3"
        },
        {
            "bufferView" : 17,
            "componentType" : 5126,
            "count" : 4,
            "type" : "VEC4"
        },
        {
            "bufferView" : 18,
            "componentType" : 5126,
            "count" : 4,
            "type" : "VEC2"
        },
        {
            "bufferView" : 19,
            "componentType" : 5123,
            "count" : 6,
            "type" : "SCALAR"
        },
        {
            "bufferView" : 20,
            "componentType" : 5126,
            "count" : 4,
            "max" : [
                3.687523603439331,
                0,
                -1.2021650075912476
            ],
            "min" : [
                -1.4287422895431519,
                -2,
                -1.2021650075912476
            ],
            "type" : "VEC3"
        },
        {
            "bufferView" : 21,
            "componentType" : 5126,
            "count" : 4,
            "type" : "VEC3"
        },
        {
            "bufferView" : 22,
            "componentType" : 5126,
            "count" : 4,
            "type" : "VEC4"
        },
        {
            "bufferView" : 23,
            "componentType" : 5126,
            "count" : 4,
            "type" : "VEC2"
        },
        {
            "bufferView" : 24,
            "componentType" : 5126,
            "count" : 4,
            "max" : [
                0.49394747614860535,
                -2,
                0.5030539035797119
            ],
            "min" : [
                -0.49394747614860535,
                -2,
                -0.5030539035797119
            ],
            "type" : "VEC3"
        },
        {
            "bufferView" : 25,
            "componentType" : 5126,
            "count" : 4,
            "type" : "VEC3"
        },
        {
            "bufferView" : 26,
            "componentType" : 5126,
            "count" : 4,
            "type" : "VEC4"
        },
        {
            "bufferView" : 27,
            "componentType" : 5126,
            "count" : 4,
            "type" : "VEC2"
        },
        {
            "bufferView" : 28,
            "componentType" : 5126,
            "count" : 6303,
            "max" : [
                0.2299996167421341,
                0.23000000417232513,
                0.22999927401542664
            ],
            "min" : [
                -0.2299998253583908,
                -0.23000000417232513,
                -0.23000000417232513
            ],
            "type" : "VEC3"
        },
        {
            "bufferView" : 29,
            "componentType" : 5126,
            "count" : 6303,
            "type" : "VEC3"
        },
        {
            "bufferView" : 30,
            "componentType" : 5126,
            "count" : 6303,
            "type" : "VEC4"
        },
        {
            "bufferView" : 31,
            "componentType" : 5126,
            "count" : 6303,
            "type" : "VEC2"
        },
        {
            "bufferView" : 32,
            "componentType" : 5123,
            "count" : 36288,
            "type" : "SCALAR"
        },
        {
            "bufferView" : 33,
            "componentType" : 5126,
            "count" : 10387,
            "max" : [
                0.43897682428359985,
                0.275617390871048,
                0.3272382616996765
            ],
            "min" : [
                -0.4389764070510864,
                -0.35600346326828003,
                -0.2018090784549713
            ],
            "type" : "VEC3"
        },
        {
            "bufferView" : 34,
            "componentType" : 5126,
            "count" : 10387,
            "type" : "VEC3"
        },
        {
            "bufferView" : 35,
            "componentType" : 5126,
            "count" : 10387,
            "type" : "VEC4"
        },
        {
            "bufferView" : 36,
            "componentType" : 5126,
            "count" : 10387,
            "type" : "VEC2"
        },
        {
            "bufferView" : 37,
            "componentType" : 5123,
            "count" : 47232,
            "type" : "SCALAR"
        }
    ],
    "bufferViews" : [
        {
            "buffer" : 0,
            "byteLength" : 288,
            "byteOffset" : 0
        },
        {
            "buffer" : 0,
            "byteLength" : 288,
            "byteOffset" : 288
        },
        {
            "buffer" : 0,
            "byteLength" : 384,
            "byteOffset" : 576
        },
        {
            "buffer" : 0,
            "byteLength" : 192,
            "byteOffset" : 960
        },
        {
            "buffer" : 0,
            "byteLength" : 72,
            "byteOffset" : 1152
        },
        {
            "buffer" : 0,
            "byteLength" : 75636,
            "byteOffset" : 1224
        },
        {
            "buffer" : 0,
            "byteLength" : 75636,
            "byteOffset" : 76860
        },
        {
            "buffer" : 0,
            "byteLength" : 100848,
            "byteOffset" : 152496
        },
        {
            "buffer" : 0,
            "byteLength" : 50424,
            "byteOffset" : 253344
        },
        {
            "buffer" : 0,
            "byteLength" : 72576,
            "byteOffset" : 303768
        },
        {
            "buffer" : 0,
            "byteLength" : 312,
            "byteOffset" : 376344
        },
        {
            "buffer" : 0,
            "byteLength" : 312,
            "byteOffset" : 376656
        },
        {
            "buffer" : 0,
            "byteLength" : 416,
            "byteOffset" : 376968
        },
        {
            "buffer" : 0,
            "byteLength" : 208,
            "byteOffset" : 377384
        },
        {
            "buffer" : 0,
            "byteLength" : 84,
            "byteOffset" : 377592
        },
        {
            "buffer" : 0,
            "byteLength" : 48,
            "byteOffset" : 377676
        },
        {
            "buffer" : 0,
            "byteLength" : 48,
            "byteOffset" : 377724
        },
        {
            "buffer" : 0,
            "byteLength" : 64,
            "byteOffset" : 377772
        },
        {
            "buffer" : 0,
            "byteLength" : 32,
            "byteOffset" : 377836
        },
        {
            "buffer" : 0,
            "byteLength" : 12,
            "byteOffset" : 377868
        },
        {
            "buffer" : 0,
            "byteLength" : 48,
            "byteOffset" : 377880
        },
        {
            "buffer" : 0,
            "byteLength" : 48,
            "byteOffset" : 377928
        },
        {
            "buffer" : 0,
            "byteLength" : 64,
            "byteOffset" : 377976
        },
        {
            "buffer" : 0,
            "byteLength" : 32,
            "byteOffset" : 378040
        },
        {
            "buffer" : 0,
            "byteLength" : 48,
            "byteOffset" : 378072
        },
        {
            "buffer" : 0,
            "byteLength" : 48,
            "byteOffset" : 378120
        },
        {
            "buffer" : 0,
            "byteLength" : 64,
            "byteOffset" : 378168
        },
        {
            "buffer" : 0,
            "byteLength" : 32,
            "byteOffset" : 378232
        },
        {
            "buffer" : 0,
            "byteLength" : 75636,
            "byteOffset" : 378264
        },
        {
            "buffer" : 0,
            "byteLength" : 75636,
            "byteOffset" : 453900
        },
        {
            "buffer" : 0,
            "byteLength" : 100848,
            "byteOffset" : 529536
        },
        {
            "buffer" : 0,
            "byteLength" : 50424,
            "byteOffset" : 630384
        },
        {
            "buffer" : 0,
            "byteLength" : 72576,
            "byteOffset" : 680808
        },
        {
            "buffer" : 0,
            "byteLength" : 124644,
            "byteOffset" : 753384
        },
        {
            "buffer" : 0,
            "byteLength" : 124644,
            "byteOffset" : 878028
        },
        {
            "buffer" : 0,
            "byteLength" : 166192,
            "byteOffset" : 1002672
        },
        {
            "buffer" : 0,
            "byteLength" : 83096,
            "byteOffset" : 1168864
        },
        {
            "buffer" : 0,
            "byteLength" : 94464,
            "byteOffset" : 1251960
        }
    ],
    "buffers" : [
        {
            "byteLength" : 1346424,
            "uri" : "cornellbox.bin"
        }
    ]
}
