{
    "asset" : {
        "generator" : "Khronos glTF Blender I/O v1.0.5",
        "version" : "2.0"
    },
    "scene" : 0,
    "scenes" : [
        {
            "name" : "Scene",
            "nodes" : [
                0,
                1,
                2,
                3,
                4
            ]
        }
    ],
    "nodes" : [
        {
            "mesh" : 0,
            "name" : "Room"
        },
        {
            "mesh" : 1,
            "name" : "MetalSphere",
            "translation" : [
                0.007981967180967331,
                0.22863489389419556,
                0.8916643857955933
            ]
        },
        {
            "mesh" : 2,
            "name" : "GlassSphere",
            "translation" : [
                -0.4575566351413727,
                0.34126386046409607,
                0.19741356372833252
            ]
        },
        {
            "mesh" : 3,
            "name" : "Suzanne",
            "rotation" : [
                -0.23200494050979614,
                0.4418063461780548,
                0.23492431640625,
                0.8341411352157593
            ],
            "translation" : [
                -0.7746350169181824,
                0.17104056477546692,
                -0.6434686779975891
            ]
        },
        {
            "mesh" : 4,
            "name" : "Cube",
            "rotation" : [
                0,
                0.34176406264305115,
                0,
                0.9397857785224915
            ],
            "translation" : [
                -1.0003024339675903,
                0.5978672504425049,
                0.7831286787986755
            ]
        }
    ],
    "materials" : [
        {
            "name" : "White",
            "pbrMetallicRoughness" : {
                "baseColorFactor" : [
                    0.8,
                    0.8,
                    0.8,
                    1
                ],
                "metallicFactor" : 0,
                "roughnessFactor" : 0.4
            }
        },
        {
            "name" : "Red",
            "pbrMetallicRoughness" : {
                "baseColorFactor" : [
                    1,
                    0.03310476616024971,
                    0.03310476616024971,
                    1
                ],
                "metallicFactor" : 0,
                "roughnessFactor" : 0.4
            }
        },
        {
            "name" : "Blue",
            "pbrMetallicRoughness" : {
                "baseColorFactor" : [
                    0.03307852894067764,
                    0.48469603061676025,
                    1,
                    1
                ],
                "metallicFactor" : 0,
                "roughnessFactor" : 0.4
            }
        },
        {
            "emissiveFactor" : [
                2.0,
                2.0,
                2.0
            ],
            "name" : "Light",
            "pbrMetallicRoughness" : {}
        },
        {
            "name" : "Metal",
            "pbrMetallicRoughness" : {
                "baseColorFactor" : [
                    0.800000011920929,
                    0.800000011920929,
                    0.800000011920929,
                    1
                ],
                "metallicFactor" : 1,
                "roughnessFactor" : 0
            }
        },
        {
            "name" : "Glass",
            "pbrMetallicRoughness" : {
                "baseColorFactor" : [
                    0.8,
                    1,
                    0.8,
                    0.1
                ],
                "metallicFactor" : 0,
                "roughnessFactor" : 0.02
            }
        }
    ],
    "meshes" : [
        {
            "name" : "Box",
            "primitives" : [
                {
                    "attributes" : {
                        "POSITION" : 0,
                        "NORMAL" : 1,
                        "TANGENT" : 2,
                        "TEXCOORD_0" : 3,
                        "COLOR_0" : 4
                    },
                    "indices" : 5,
                    "material" : 0
                },
                {
                    "attributes" : {
                        "POSITION" : 6,
                        "NORMAL" : 7,
                        "TANGENT" : 8,
                        "TEXCOORD_0" : 9,
                        "COLOR_0" : 10
                    },
                    "indices" : 11,
                    "material" : 1
                },
                {
                    "attributes" : {
                        "POSITION" : 12,
                        "NORMAL" : 13,
                        "TANGENT" : 14,
                        "TEXCOORD_0" : 15,
                        "COLOR_0" : 16
                    },
                    "indices" : 11,
                    "material" : 2
                },
                {
                    "attributes" : {
                        "POSITION" : 17,
                        "NORMAL" : 18,
                        "TANGENT" : 19,
                        "TEXCOORD_0" : 20,
                        "COLOR_0" : 21
                    },
                    "indices" : 22,
                    "material" : 3
                }
            ]
        },
        {
            "name" : "MetalSphere",
            "primitives" : [
                {
                    "attributes" : {
                        "POSITION" : 23,
                        "NORMAL" : 24,
                        "TANGENT" : 25,
                        "TEXCOORD_0" : 26
                    },
                    "indices" : 27,
                    "material" : 4
                }
            ]
        },
        {
            "name" : "GlassSphere",
            "primitives" : [
                {
                    "attributes" : {
                        "POSITION" : 28,
                        "NORMAL" : 29,
                        "TANGENT" : 30,
                        "TEXCOORD_0" : 31
                    },
                    "indices" : 32,
                    "material" : 5
                }
            ]
        },
        {
            "name" : "Suzanne",
            "primitives" : [
                {
                    "attributes" : {
                        "POSITION" : 33,
                        "NORMAL" : 34,
                        "TANGENT" : 35,
                        "TEXCOORD_0" : 36
                    },
                    "indices" : 37,
                    "material" : 0
                }
            ]
        },
        {
            "name" : "Cube",
            "primitives" : [
                {
                    "attributes" : {
                        "POSITION" : 38,
                        "NORMAL" : 39,
                        "TANGENT" : 40,
                        "TEXCOORD_0" : 41
                    },
                    "indices" : 42,
                    "material" : 0
                }
            ]
        }
    ],
    "accessors" : [
        {
            "bufferView" : 0,
            "componentType" : 5126,
            "count" : 22,
            "max" : [
                3.687523603439331,
                2,
                1.2021650075912476
            ],
            "min" : [
                -1.4287422895431519,
                0,
                -1.2021650075912476
            ],
            "type" : "VEC3"
        },
        {
            "bufferView" : 1,
            "componentType" : 5126,
            "count" : 22,
            "type" : "VEC3"
        },
        {
            "bufferView" : 2,
            "componentType" : 5126,
            "count" : 22,
            "type" : "VEC4"
        },
        {
            "bufferView" : 3,
            "componentType" : 5126,
            "count" : 22,
            "type" : "VEC2"
        },
        {
            "bufferView" : 4,
            "componentType" : 5126,
            "count" : 22,
            "type" : "VEC4"
        },
        {
            "bufferView" : 5,
            "componentType" : 5123,
            "count" : 42,
            "type" : "SCALAR"
        },
        {
            "bufferView" : 6,
            "componentType" : 5126,
            "count" : 6,
            "max" : [
                3.687523603439331,
                2,
                -1.2021650075912476
            ],
            "min" : [
                -1.4287422895431519,
                0,
                -1.2021650075912476
            ],
            "type" : "VEC3"
        },
        {
            "bufferView" : 7,
            "componentType" : 5126,
            "count" : 6,
            "type" : "VEC3"
        },
        {
            "bufferView" : 8,
            "componentType" : 5126,
            "count" : 6,
            "type" : "VEC4"
        },
        {
            "bufferView" : 9,
            "componentType" : 5126,
            "count" : 6,
            "type" : "VEC2"
        },
        {
            "bufferView" : 10,
            "componentType" : 5126,
            "count" : 6,
            "type" : "VEC4"
        },
        {
            "bufferView" : 11,
            "componentType" : 5123,
            "count" : 6,
            "type" : "SCALAR"
        },
        {
            "bufferView" : 12,
            "componentType" : 5126,
            "count" : 6,
            "max" : [
                3.687523603439331,
                2,
                1.2021650075912476
            ],
            "min" : [
                -1.4287422895431519,
                0,
                1.2021650075912476
            ],
            "type" : "VEC3"
        },
        {
            "bufferView" : 13,
            "componentType" : 5126,
            "count" : 6,
            "type" : "VEC3"
        },
        {
            "bufferView" : 14,
            "componentType" : 5126,
            "count" : 6,
            "type" : "VEC4"
        },
        {
            "bufferView" : 15,
            "componentType" : 5126,
            "count" : 6,
            "type" : "VEC2"
        },
        {
            "bufferView" : 16,
            "componentType" : 5126,
            "count" : 6,
            "type" : "VEC4"
        },
        {
            "bufferView" : 17,
            "componentType" : 5126,
            "count" : 4,
            "max" : [
                0.49394747614860535,
                2,
                0.5030539035797119
            ],
            "min" : [
                -0.49394747614860535,
                2,
                -0.5030539035797119
            ],
            "type" : "VEC3"
        },
        {
            "bufferView" : 18,
            "componentType" : 5126,
            "count" : 4,
            "type" : "VEC3"
        },
        {
            "bufferView" : 19,
            "componentType" : 5126,
            "count" : 4,
            "type" : "VEC4"
        },
        {
            "bufferView" : 20,
            "componentType" : 5126,
            "count" : 4,
            "type" : "VEC2"
        },
        {
            "bufferView" : 21,
            "componentType" : 5126,
            "count" : 4,
            "type" : "VEC4"
        },
        {
            "bufferView" : 22,
            "componentType" : 5123,
            "count" : 6,
            "type" : "SCALAR"
        },
        {
            "bufferView" : 23,
            "componentType" : 5126,
            "count" : 559,
            "max" : [
                0.22894026339054108,
                0.22894015908241272,
                0.22894038259983063
            ],
            "min" : [
                -0.2289394736289978,
                -0.22893960773944855,
                -0.2289394736289978
            ],
            "type" : "VEC3"
        },
        {
            "bufferView" : 24,
            "componentType" : 5126,
            "count" : 559,
            "type" : "VEC3"
        },
        {
            "bufferView" : 25,
            "componentType" : 5126,
            "count" : 559,
            "type" : "VEC4"
        },
        {
            "bufferView" : 26,
            "componentType" : 5126,
            "count" : 559,
            "type" : "VEC2"
        },
        {
            "bufferView" : 27,
            "componentType" : 5123,
            "count" : 2880,
            "type" : "SCALAR"
        },
        {
            "bufferView" : 28,
            "componentType" : 5126,
            "count" : 559,
            "max" : [
                0.34174323081970215,
                0.3417431116104126,
                0.3417433500289917
            ],
            "min" : [
                -0.3417429029941559,
                -0.3417431116104126,
                -0.34174296259880066
            ],
            "type" : "VEC3"
        },
        {
            "bufferView" : 29,
            "componentType" : 5126,
            "count" : 559,
            "type" : "VEC3"
        },
        {
            "bufferView" : 30,
            "componentType" : 5126,
            "count" : 559,
            "type" : "VEC4"
        },
        {
            "bufferView" : 31,
            "componentType" : 5126,
            "count" : 559,
            "type" : "VEC2"
        },
        {
            "bufferView" : 32,
            "componentType" : 5123,
            "count" : 2880,
            "type" : "SCALAR"
        },
        {
            "bufferView" : 33,
            "componentType" : 5126,
            "count" : 10615,
            "max" : [
                0.43897682428359985,
                0.35600346326828003,
                0.2018090784549713
            ],
            "min" : [
                -0.4389764070510864,
                -0.275617390871048,
                -0.3272382616996765
            ],
            "type" : "VEC3"
        },
        {
            "bufferView" : 34,
            "componentType" : 5126,
            "count" : 10615,
            "type" : "VEC3"
        },
        {
            "bufferView" : 35,
            "componentType" : 5126,
            "count" : 10615,
            "type" : "VEC4"
        },
        {
            "bufferView" : 36,
            "componentType" : 5126,
            "count" : 10615,
            "type" : "VEC2"
        },
        {
            "bufferView" : 37,
            "componentType" : 5123,
            "count" : 47232,
            "type" : "SCALAR"
        },
        {
            "bufferView" : 38,
            "componentType" : 5126,
            "count" : 24,
            "max" : [
                0.27138933539390564,
                0.5990819931030273,
                0.27138933539390564
            ],
            "min" : [
                -0.27138933539390564,
                -0.5990818738937378,
                -0.27138933539390564
            ],
            "type" : "VEC3"
        },
        {
            "bufferView" : 39,
            "componentType" : 5126,
            "count" : 24,
            "type" : "VEC3"
        },
        {
            "bufferView" : 40,
            "componentType" : 5126,
            "count" : 24,
            "type" : "VEC4"
        },
        {
            "bufferView" : 41,
            "componentType" : 5126,
            "count" : 24,
            "type" : "VEC2"
        },
        {
            "bufferView" : 42,
            "componentType" : 5123,
            "count" : 36,
            "type" : "SCALAR"
        }
    ],
    "bufferViews" : [
        {
            "buffer" : 0,
            "byteLength" : 264,
            "byteOffset" : 0
        },
        {
            "buffer" : 0,
            "byteLength" : 264,
            "byteOffset" : 264
        },
        {
            "buffer" : 0,
            "byteLength" : 352,
            "byteOffset" : 528
        },
        {
            "buffer" : 0,
            "byteLength" : 176,
            "byteOffset" : 880
        },
        {
            "buffer" : 0,
            "byteLength" : 352,
            "byteOffset" : 1056
        },
        {
            "buffer" : 0,
            "byteLength" : 84,
            "byteOffset" : 1408
        },
        {
            "buffer" : 0,
            "byteLength" : 72,
            "byteOffset" : 1492
        },
        {
            "buffer" : 0,
            "byteLength" : 72,
            "byteOffset" : 1564
        },
        {
            "buffer" : 0,
            "byteLength" : 96,
            "byteOffset" : 1636
        },
        {
            "buffer" : 0,
            "byteLength" : 48,
            "byteOffset" : 1732
        },
        {
            "buffer" : 0,
            "byteLength" : 96,
            "byteOffset" : 1780
        },
        {
            "buffer" : 0,
            "byteLength" : 12,
            "byteOffset" : 1876
        },
        {
            "buffer" : 0,
            "byteLength" : 72,
            "byteOffset" : 1888
        },
        {
            "buffer" : 0,
            "byteLength" : 72,
            "byteOffset" : 1960
        },
        {
            "buffer" : 0,
            "byteLength" : 96,
            "byteOffset" : 2032
        },
        {
            "buffer" : 0,
            "byteLength" : 48,
            "byteOffset" : 2128
        },
        {
            "buffer" : 0,
            "byteLength" : 96,
            "byteOffset" : 2176
        },
        {
            "buffer" : 0,
            "byteLength" : 48,
            "byteOffset" : 2272
        },
        {
            "buffer" : 0,
            "byteLength" : 48,
            "byteOffset" : 2320
        },
        {
            "buffer" : 0,
            "byteLength" : 64,
            "byteOffset" : 2368
        },
        {
            "buffer" : 0,
            "byteLength" : 32,
            "byteOffset" : 2432
        },
        {
            "buffer" : 0,
            "byteLength" : 64,
            "byteOffset" : 2464
        },
        {
            "buffer" : 0,
            "byteLength" : 12,
            "byteOffset" : 2528
        },
        {
            "buffer" : 0,
            "byteLength" : 6708,
            "byteOffset" : 2540
        },
        {
            "buffer" : 0,
            "byteLength" : 6708,
            "byteOffset" : 9248
        },
        {
            "buffer" : 0,
            "byteLength" : 8944,
            "byteOffset" : 15956
        },
        {
            "buffer" : 0,
            "byteLength" : 4472,
            "byteOffset" : 24900
        },
        {
            "buffer" : 0,
            "byteLength" : 5760,
            "byteOffset" : 29372
        },
        {
            "buffer" : 0,
            "byteLength" : 6708,
            "byteOffset" : 35132
        },
        {
            "buffer" : 0,
            "byteLength" : 6708,
            "byteOffset" : 41840
        },
        {
            "buffer" : 0,
            "byteLength" : 8944,
            "byteOffset" : 48548
        },
        {
            "buffer" : 0,
            "byteLength" : 4472,
            "byteOffset" : 57492
        },
        {
            "buffer" : 0,
            "byteLength" : 5760,
            "byteOffset" : 61964
        },
        {
            "buffer" : 0,
            "byteLength" : 127380,
            "byteOffset" : 67724
        },
        {
            "buffer" : 0,
            "byteLength" : 127380,
            "byteOffset" : 195104
        },
        {
            "buffer" : 0,
            "byteLength" : 169840,
            "byteOffset" : 322484
        },
        {
            "buffer" : 0,
            "byteLength" : 84920,
            "byteOffset" : 492324
        },
        {
            "buffer" : 0,
            "byteLength" : 94464,
            "byteOffset" : 577244
        },
        {
            "buffer" : 0,
            "byteLength" : 288,
            "byteOffset" : 671708
        },
        {
            "buffer" : 0,
            "byteLength" : 288,
            "byteOffset" : 671996
        },
        {
            "buffer" : 0,
            "byteLength" : 384,
            "byteOffset" : 672284
        },
        {
            "buffer" : 0,
            "byteLength" : 192,
            "byteOffset" : 672668
        },
        {
            "buffer" : 0,
            "byteLength" : 72,
            "byteOffset" : 672860
        }
    ],
    "buffers" : [
        {
            "byteLength" : 672932,
            "uri" : "cornellbox.bin"
        }
    ]
}
